<?xml version="1.0" standalone="no"?>
<!DOCTYPE svg PUBLIC "-//W3C//DTD SVG 20010904//EN"
 "http://www.w3.org/TR/2001/REC-SVG-20010904/DTD/svg10.dtd">
<svg version="1.0" xmlns="http://www.w3.org/2000/svg"
 width="900.000000pt" height="900.000000pt" viewBox="0 0 900.000000 900.000000"
 preserveAspectRatio="xMidYMid meet">

<g transform="translate(0.000000,900.000000) scale(0.100000,-0.100000)"
fill="#000000" stroke="none">
<path d="M4195 8443 c-718 -62 -1360 -288 -1945 -684 -335 -227 -673 -547
-927 -879 -387 -506 -649 -1105 -757 -1730 -71 -406 -78 -869 -20 -1265 172
-1184 862 -2225 1884 -2845 263 -160 518 -277 815 -375 886 -294 1853 -269
2710 70 396 157 722 345 1055 611 173 138 466 431 604 604 577 724 884 1593
883 2505 0 237 -15 421 -53 653 -135 819 -518 1570 -1104 2161 -662 669 -1522
1076 -2458 1166 -140 14 -568 19 -687 8z m625 -317 c14 -2 56 -7 93 -11 37 -3
76 -8 85 -10 9 -1 39 -6 65 -9 170 -23 448 -93 647 -162 523 -182 990 -474
1380 -864 146 -145 166 -168 250 -270 25 -30 47 -57 50 -60 10 -9 137 -185
177 -245 176 -263 335 -589 432 -889 39 -118 101 -356 116 -441 4 -22 9 -50
11 -62 11 -62 14 -80 20 -122 3 -25 8 -57 10 -71 27 -167 27 -719 -1 -910 -20
-143 -24 -166 -46 -275 -283 -1419 -1399 -2553 -2819 -2864 -114 -25 -243 -47
-325 -56 -33 -4 -71 -8 -85 -11 -135 -21 -624 -21 -761 1 -13 2 -49 6 -80 10
-31 3 -66 7 -77 10 -11 2 -42 7 -69 11 -26 5 -50 9 -53 9 -3 1 -25 5 -50 9
-94 16 -330 79 -459 122 -432 144 -879 398 -1223 693 -88 76 -343 332 -414
416 -353 418 -614 918 -753 1445 -33 126 -76 341 -87 435 -3 33 -8 68 -9 77
-20 102 -27 556 -12 735 51 630 279 1264 640 1783 53 76 182 247 197 260 3 3
34 39 70 80 442 509 1070 910 1723 1099 111 33 296 76 363 86 22 4 46 8 54 10
35 10 235 35 331 41 57 4 106 8 108 10 6 5 469 -4 501 -10z"/>
<path d="M6640 6621 c-94 -29 -155 -88 -239 -230 -38 -64 -152 -258 -254 -431
-102 -173 -191 -323 -199 -332 -9 -12 -34 -19 -83 -23 -61 -5 -127 -13 -255
-31 -148 -22 -360 -80 -515 -141 -186 -75 -344 -175 -460 -292 -83 -85 -99
-84 -198 13 -126 122 -293 223 -501 301 -90 33 -275 86 -351 100 -56 10 -160
26 -200 31 -22 3 -51 7 -64 9 -168 27 -751 27 -1006 0 -22 -2 -60 -6 -85 -9
-85 -9 -165 -19 -180 -22 -8 -1 -18 -3 -21 -3 -3 -1 -7 -27 -8 -59 -1 -32 -3
-67 -5 -78 -2 -10 -7 -71 -11 -134 -4 -63 -9 -126 -10 -140 -2 -14 -3 -37 -4
-52 -1 -21 -7 -29 -28 -34 -129 -31 -259 -159 -281 -276 -3 -18 -6 -465 -6
-993 l0 -960 26 -56 c47 -102 131 -173 249 -210 58 -18 109 -19 1171 -19
l1110 0 37 -29 c154 -122 361 -127 509 -13 l47 37 1105 5 1105 5 67 32 c85 40
156 106 194 180 l29 58 2 975 3 975 -24 58 c-31 75 -82 136 -148 178 -29 18
-55 34 -57 35 -4 3 -7 34 -15 159 -6 88 -11 155 -21 284 -3 35 -7 66 -9 68 -5
6 -38 11 -113 18 -37 4 -75 9 -84 10 -8 2 -55 6 -105 10 -84 6 -146 14 -150
18 -1 1 28 54 65 117 326 553 318 536 309 654 -12 147 -115 246 -253 245 -33
0 -71 -4 -85 -8z m45 -246 c68 -28 119 -91 143 -177 8 -30 7 -42 -10 -69 l-20
-33 -17 51 c-45 133 -158 199 -297 175 -30 -5 -54 -7 -54 -5 0 17 38 65 55 68
11 2 29 6 40 9 30 6 126 -5 160 -19z m-60 -124 c51 -23 107 -85 130 -144 18
-48 16 -78 -9 -112 -13 -19 -15 -17 -25 20 -6 22 -24 61 -40 86 -48 77 -154
116 -267 99 -24 -4 -44 -5 -44 -3 0 13 32 62 42 66 34 14 175 6 213 -12z
m-3365 -772 c503 -47 881 -194 1101 -425 105 -111 94 28 95 -1176 0 -582 -3
-1058 -7 -1058 -4 0 -84 38 -179 84 -662 326 -1235 478 -1740 463 -204 -7
-323 -26 -463 -77 -44 -17 -81 -30 -82 -30 -1 0 30 407 49 650 3 41 22 284 41
540 64 846 75 984 83 991 10 10 307 39 482 48 179 9 467 5 620 -10z m2600 -4
c0 -3 -136 -236 -302 -517 -336 -569 -310 -510 -322 -738 -4 -63 -11 -178 -17
-254 -5 -77 -7 -141 -5 -143 2 -3 120 70 262 160 l258 165 391 663 392 664
109 -3 c60 -2 154 -8 209 -15 l100 -12 32 -425 c17 -234 55 -724 82 -1089 28
-365 50 -666 48 -667 -2 -2 -37 10 -78 25 -154 60 -351 86 -599 78 -441 -13
-918 -143 -1485 -404 -77 -36 -177 -85 -222 -109 l-83 -45 0 1064 0 1065 43
58 c145 197 464 363 842 438 191 38 345 56 345 41z m-450 -1033 c9 -45 17 -62
26 -58 8 3 48 28 90 57 41 28 78 49 80 46 2 -2 0 -49 -5 -103 -5 -54 -7 -101
-5 -103 2 -2 36 6 76 17 39 12 73 20 75 18 2 -2 -9 -25 -25 -52 -23 -41 -52
-66 -172 -147 l-144 -98 -23 26 c-17 17 -34 25 -58 25 l-35 0 5 43 c3 23 10
104 15 180 7 88 16 148 25 163 47 77 47 77 55 63 4 -8 13 -42 20 -77z"/>
</g>
</svg>
